<svg width="20" height="16" viewBox="0 0 20 16" fill="none" xmlns="http://www.w3.org/2000/svg">
  <path d="M10 .454C4.477.454 0 4.974 0 10.55c0 3.023 1.305 4.995 1.305 4.995h17.387S20 13.392 20 10.55C20 4.974 15.523.454 10 .454zm7.958 13.862l-15.884-.007s-.846-1.603-.846-3.791c0-4.887 3.942-8.849 8.806-8.849 4.863 0 8.806 3.962 8.806 8.849 0 2.213-.882 3.798-.882 3.798z"/>
  <path d="M12.826 3.135h-.125l-2.668 5.227L7.27 3.09l-3.784 9.523h-.978v.765h5.357v-.765H6.802l1.063-2.976 2.168 3.741 2.083-3.74 1.063 2.975h-1.063v.765h5.314v-.765h-.92l-3.684-9.478z"/>
</svg>
