<svg width="130" height="40" viewBox="0 0 130 40" fill="none" xmlns="http://www.w3.org/2000/svg"><defs><linearGradient id="a" x1="21.638" y1="8.71" x2="4.859" y2="25.365" gradientUnits="userSpaceOnUse"><stop stop-color="#00A0FF"/><stop offset=".01" stop-color="#00A1FF"/><stop offset=".26" stop-color="#00BEFF"/><stop offset=".51" stop-color="#00D2FF"/><stop offset=".76" stop-color="#00DFFF"/><stop offset="1" stop-color="#00E3FF"/></linearGradient><linearGradient id="b" x1="33.58" y1="20" x2="9.569" y2="20" gradientUnits="userSpaceOnUse"><stop stop-color="#FFE000"/><stop offset=".41" stop-color="#FFBD00"/><stop offset=".78" stop-color="orange"/><stop offset="1" stop-color="#FF9C00"/></linearGradient><linearGradient id="c" x1="24.647" y1="22.3" x2="1.887" y2="44.88" gradientUnits="userSpaceOnUse"><stop stop-color="#FF3A44"/><stop offset="1" stop-color="#C31162"/></linearGradient><linearGradient id="d" x1="7.247" y1=".18" x2="17.406" y2="10.264" gradientUnits="userSpaceOnUse"><stop stop-color="#32A071"/><stop offset=".07" stop-color="#2DA771"/><stop offset=".48" stop-color="#15CF74"/><stop offset=".8" stop-color="#06E775"/><stop offset="1" stop-color="#00F076"/></linearGradient></defs><rect width="130" height="40" rx="8" fill="#000"/><rect x=".5" y=".5" width="129" height="39" rx="7.5" stroke="#A6A6A6"/><path d="M10.362 7.54a2.01 2.01 0 00-.466 1.4v22.12a1.95 1.95 0 00.466 1.4l.07.08L22.73 20.15v-.3L10.432 7.47l-.07.07z" fill="url(#a)"/><path d="M26.8 24.28l-4.07-4.13v-.3l4.07-4.13.09.06 4.873 2.78c1.39.79 1.39 2.09 0 2.89l-4.854 2.78-.109.05z" fill="url(#b)"/><path d="M26.92 24.22L22.73 20 10.363 32.46a1.602 1.602 0 002.055.07l14.502-8.31z" fill="url(#c)"/><path d="M26.92 15.78l-14.502-8.3a1.59 1.59 0 00-2.055.06L22.731 20l4.189-4.22z" fill="url(#d)"/><path opacity=".2" d="M26.8 24.13l-14.382 8.25a1.64 1.64 0 01-1.985 0l-.07.07.07.08a1.64 1.64 0 001.985 0l14.502-8.31-.12-.09z" fill="#000"/><path opacity=".12" d="M10.362 32.32a2.01 2.01 0 01-.436-1.41v.15a1.95 1.95 0 00.466 1.4l.07-.07-.1-.07zM31.763 21.3L26.8 24.13l.09.09 4.873-2.78A1.74 1.74 0 0032.815 20a1.866 1.866 0 01-1.052 1.3z" fill="#000"/><path opacity=".25" d="M12.417 7.62L31.762 18.7a1.848 1.848 0 011.053 1.3 1.758 1.758 0 00-.33-.866 1.74 1.74 0 00-.723-.574L12.417 7.48c-1.38-.8-2.521-.14-2.521 1.46v.15c.03-1.6 1.141-2.26 2.52-1.47z" fill="#fff"/><path d="M65.745 21.658a3.912 3.912 0 00-2.184.673 3.956 3.956 0 00-1.444 1.782 3.99 3.99 0 00.862 4.316 3.906 3.906 0 004.288.849 3.94 3.94 0 001.762-1.464c.431-.652.66-1.419.658-2.203a3.922 3.922 0 00-1.139-2.819 3.867 3.867 0 00-2.803-1.134zm0 6.353a2.368 2.368 0 01-1.366-.32 2.394 2.394 0 01-.95-1.04 2.416 2.416 0 01.405-2.668 2.366 2.366 0 012.613-.6c.445.175.828.482 1.098.88.27.397.414.867.416 1.348a2.303 2.303 0 01-.606 1.671 2.271 2.271 0 01-1.61.73zm-8.605-6.353a3.912 3.912 0 00-2.184.673 3.956 3.956 0 00-1.444 1.782 3.989 3.989 0 00.862 4.316 3.906 3.906 0 004.288.849 3.94 3.94 0 001.762-1.464c.431-.652.66-1.419.658-2.203a3.924 3.924 0 00-1.139-2.819 3.868 3.868 0 00-2.803-1.134zm0 6.353a2.368 2.368 0 01-1.366-.32 2.393 2.393 0 01-.95-1.04 2.415 2.415 0 01.405-2.668 2.366 2.366 0 012.613-.6c.445.175.828.482 1.098.88.27.397.414.867.416 1.348a2.303 2.303 0 01-.606 1.671 2.27 2.27 0 01-1.61.73zm-10.23-5.134v1.674h3.988a3.519 3.519 0 01-.923 2.111 4.08 4.08 0 01-3.084 1.228 4.415 4.415 0 01-3.134-1.308 4.482 4.482 0 01-1.298-3.157c0-1.184.467-2.32 1.298-3.157a4.415 4.415 0 013.134-1.308 4.267 4.267 0 013.029 1.2l1.172-1.18a5.78 5.78 0 00-4.183-1.693 6.063 6.063 0 00-4.467 1.712 6.15 6.15 0 00-1.385 2.023 6.189 6.189 0 001.385 6.84 6.063 6.063 0 004.468 1.712 5.567 5.567 0 002.31-.402 5.602 5.602 0 001.946-1.319 5.606 5.606 0 001.44-3.935 5.875 5.875 0 00-.083-1.041H46.91zm41.834 1.302a3.719 3.719 0 00-1.291-1.787 3.675 3.675 0 00-2.07-.734 3.67 3.67 0 00-2.697 1.17 3.726 3.726 0 00-.996 2.783c-.008.85.257 1.678.755 2.363a3.907 3.907 0 002.01 1.437c.806.248 1.67.227 2.463-.06a3.91 3.91 0 001.937-1.535l-1.34-.93a2.212 2.212 0 01-1.93 1.088 1.977 1.977 0 01-1.134-.303 1.997 1.997 0 01-.767-.897l5.254-2.186-.194-.41zm-5.355 1.32a2.191 2.191 0 01.546-1.593 2.162 2.162 0 011.513-.723 1.505 1.505 0 011.45.847l-3.51 1.47zm-4.266 3.833h1.727V17.705h-1.727v11.627zm-2.825-6.79h-.065a2.716 2.716 0 00-2.068-.93 3.92 3.92 0 00-2.657 1.224 3.979 3.979 0 00-1.086 2.733c0 1.018.39 1.997 1.086 2.734a3.92 3.92 0 002.657 1.224 2.642 2.642 0 002.068-.93h.065v.567c0 1.517-.803 2.326-2.096 2.326a2.169 2.169 0 01-1.204-.398c-.354-.25-.626-.6-.781-1.007l-1.496.624c.277.7.758 1.298 1.38 1.717a3.674 3.674 0 002.101.627c2.022 0 3.693-1.2 3.693-4.121v-7.041h-1.597v.65zm-1.985 5.47a2.375 2.375 0 01-1.588-.753 2.41 2.41 0 010-3.286 2.375 2.375 0 011.588-.752 2.192 2.192 0 011.555.745 2.226 2.226 0 01.55 1.645 2.23 2.23 0 01-.543 1.654 2.2 2.2 0 01-1.562.746zm22.519-10.307h-4.136v11.627h1.726v-4.41h2.41a3.568 3.568 0 002.704-.96 3.64 3.64 0 000-5.297 3.588 3.588 0 00-2.704-.96zm0 5.58h-2.41v-3.962h2.447a1.962 1.962 0 011.397.583 1.99 1.99 0 01.579 1.408 2.004 2.004 0 01-.58 1.407 1.977 1.977 0 01-1.396.583l-.037-.018zm10.655-1.664a3.203 3.203 0 00-1.802.424 3.238 3.238 0 00-1.273 1.352l1.523.642a1.647 1.647 0 011.579-.846 1.654 1.654 0 011.655.866c.105.195.17.41.192.631v.112a3.836 3.836 0 00-1.801-.447c-1.643 0-3.323.93-3.323 2.624a2.705 2.705 0 00.898 1.891 2.654 2.654 0 001.973.667 2.43 2.43 0 001.251-.268c.386-.2.713-.499.946-.867h.056v.93h1.662v-4.474c0-2.037-1.533-3.219-3.499-3.219l-.037-.018zm-.213 6.372c-.563 0-1.348-.289-1.348-.986 0-.93.979-1.247 1.847-1.247a3.045 3.045 0 011.569.39 2.105 2.105 0 01-.669 1.315 2.076 2.076 0 01-1.362.546l-.037-.018zm9.806-6.102l-1.976 5.041h-.056l-2.049-5.041h-1.847l3.075 7.05-1.755 3.916h1.801L119 21.891h-1.92zm-15.512 7.441h1.718V17.705h-1.718v11.627z" fill="#fff"/><path d="M41.712 14.7h-.674v-1.86h.573a2.647 2.647 0 00.674-2.111V7.938h3.693v4.893h.618v1.86h-.683V13.52h-4.2v1.18zm1.283-3.971a3.743 3.743 0 01-.526 2.13h2.77V8.626h-2.244v2.103zm9.151 2.065a2.86 2.86 0 01-2.027.847 2.844 2.844 0 01-2.026-.847 2.998 2.998 0 010-4.13 2.86 2.86 0 012.026-.848 2.844 2.844 0 012.645 1.796c.14.355.21.735.204 1.117a2.809 2.809 0 01-.822 2.065zm-3.536-.466a2.05 2.05 0 001.505.633 2.01 2.01 0 001.505-.633 2.373 2.373 0 000-3.2 2.023 2.023 0 00-1.505-.632 2.037 2.037 0 00-1.505.633 2.4 2.4 0 000 3.2zm7.94 1.312a2.751 2.751 0 01-2.013-.828 3.026 3.026 0 010-4.167 2.768 2.768 0 012.05-.828 2.523 2.523 0 012.031.93l-.49.484a1.849 1.849 0 00-1.541-.716 2.064 2.064 0 00-1.533.623 2.4 2.4 0 000 3.218 2.078 2.078 0 002.446.393c.283-.143.533-.347.73-.597l.499.493a2.774 2.774 0 01-.923.725 2.836 2.836 0 01-1.256.27zm5.077-.12h-.71V8.625h-1.552v-.688h3.804v.688h-1.541v4.893zm6.435-5.582l-2.095 4.707a1.353 1.353 0 01-.723.867 1.33 1.33 0 01-1.124.007l.185-.66c.113.064.24.099.369.102a.66.66 0 00.388-.102.846.846 0 00.249-.354l.203-.446-1.846-4.121h.84l1.366 3.2 1.348-3.2h.84zm.803 5.582V7.937h4.007v5.581h-.71V8.626h-2.586v4.893h-.71zm5.273 0V7.937h.71v2.39h2.77v-2.39h.72v5.581h-.72V11h-2.77v2.52h-.71zm9.999-.726a2.869 2.869 0 01-2.031.848 2.853 2.853 0 01-2.031-.848 2.998 2.998 0 010-4.13 2.86 2.86 0 012.026-.848 2.844 2.844 0 012.027.848 3.017 3.017 0 010 4.13h.01zm-3.536-.466a2.023 2.023 0 001.505.633 2.036 2.036 0 001.505-.633 2.4 2.4 0 000-3.2 2.05 2.05 0 00-1.505-.632 2.01 2.01 0 00-1.505.633 2.373 2.373 0 000 3.2zm7.257 1.192V7.937h2.003a1.66 1.66 0 011.127.428 1.405 1.405 0 01.48 1.088 1.29 1.29 0 01-.203.707c-.137.2-.325.358-.545.456.267.092.5.26.674.484.17.228.26.505.258.79a1.47 1.47 0 01-.498 1.135c-.32.3-.744.464-1.182.456l-2.114.037zm.71-3.191h1.293a.798.798 0 00.646-.27.84.84 0 00.25-.586.869.869 0 00-.213-.605.785.785 0 00-.618-.26h-1.33l-.027 1.72zm0 2.502h1.441a.844.844 0 00.665-.288.934.934 0 00.249-.633.934.934 0 00-.951-.912h-1.403v1.833z" fill="#fff" stroke="#fff" stroke-width=".2" stroke-miterlimit="10"/></svg>