<svg xmlns="http://www.w3.org/2000/svg" xmlns:xlink="http://www.w3.org/1999/xlink"><defs><linearGradient id="a" x1="21.638" y1="8.71" x2="4.859" y2="25.365" gradientUnits="userSpaceOnUse"><stop stop-color="#00A0FF"/><stop offset=".01" stop-color="#00A1FF"/><stop offset=".26" stop-color="#00BEFF"/><stop offset=".51" stop-color="#00D2FF"/><stop offset=".76" stop-color="#00DFFF"/><stop offset="1" stop-color="#00E3FF"/></linearGradient><linearGradient id="b" x1="33.58" y1="20" x2="9.569" y2="20" gradientUnits="userSpaceOnUse"><stop stop-color="#FFE000"/><stop offset=".41" stop-color="#FFBD00"/><stop offset=".78" stop-color="orange"/><stop offset="1" stop-color="#FF9C00"/></linearGradient><linearGradient id="c" x1="24.647" y1="22.3" x2="1.887" y2="44.88" gradientUnits="userSpaceOnUse"><stop stop-color="#FF3A44"/><stop offset="1" stop-color="#C31162"/></linearGradient><linearGradient id="d" x1="7.247" y1=".18" x2="17.406" y2="10.264" gradientUnits="userSpaceOnUse"><stop stop-color="#32A071"/><stop offset=".07" stop-color="#2DA771"/><stop offset=".48" stop-color="#15CF74"/><stop offset=".8" stop-color="#06E775"/><stop offset="1" stop-color="#00F076"/></linearGradient><linearGradient id="a" x1="2.686" y1="37.394" x2="39.748" y2="5.31" gradientUnits="userSpaceOnUse"><stop stop-color="#F1C800"/><stop offset=".359" stop-color="#F02501"/><stop offset=".672" stop-color="#C837AB"/><stop offset="1" stop-color="#7C39AD"/></linearGradient></defs><symbol id="icon-appstore" viewBox="0 0 130 40"><rect width="130" height="40" rx="8" fill="#000"/><rect x=".5" y=".5" width="129" height="39" rx="7.5" stroke="#A6A6A6"/><path d="M36.569 11.253h.794a.993.993 0 001.019-.553 1 1 0 00.1-.398c0-.55-.411-.906-1.11-.906a1.054 1.054 0 00-1.07.533c-.07.124-.113.26-.129.402h-.872A1.878 1.878 0 0135.973 9a1.86 1.86 0 011.427-.414c1.17 0 1.993.658 1.993 1.604a1.39 1.39 0 01-1.08 1.365v.07a1.393 1.393 0 011.322 1.443 2 2 0 01-.738 1.356 1.98 1.98 0 01-1.48.418 1.966 1.966 0 01-1.998-1.01 1.99 1.99 0 01-.233-.755h.885c.054.57.576.939 1.345.939.77 0 1.273-.414 1.273-.997 0-.591-.474-.956-1.3-.956h-.82v-.81zm4.071 2.171c0-.81.603-1.277 1.668-1.344l1.214-.07v-.389c0-.476-.312-.744-.917-.744-.494 0-.835.182-.935.5h-.856c.09-.773.816-1.27 1.832-1.27 1.124 0 1.758.563 1.758 1.514v3.077h-.853v-.633h-.07a1.511 1.511 0 01-1.346.707 1.347 1.347 0 01-1.375-.796 1.365 1.365 0 01-.12-.552zm2.882-.384v-.377l-1.094.07c-.618.042-.898.253-.898.65 0 .405.35.64.831.64a1.05 1.05 0 001.05-.576c.064-.127.102-.265.111-.407zm3.229-2.097v3.755h-.884v-4.503h2.95v.748h-2.066zm7.428 1.501c0 1.431-.72 2.328-1.852 2.328a1.455 1.455 0 01-1.38-.756h-.07v2.179h-.884v-6h.851v.744h.066a1.56 1.56 0 011.408-.819c1.14 0 1.86.893 1.86 2.324zm-.91 0c0-.95-.448-1.526-1.198-1.526-.744 0-1.21.587-1.21 1.53 0 .939.466 1.526 1.206 1.526.754 0 1.202-.575 1.202-1.53zm2.087 3.866v-.765c.096.013.193.018.29.017a.765.765 0 00.81-.628l.066-.22-1.622-4.52h.963l1.124 3.577h.07l1.12-3.576h.938l-1.672 4.689c-.383 1.095-.806 1.447-1.72 1.447-.074 0-.284-.008-.367-.02zm4.448-2.89h.88c.087.397.457.604.975.604.59 0 .951-.26.951-.666 0-.434-.325-.641-.95-.641h-.671v-.69h.659c.534 0 .806-.207.806-.584 0-.33-.263-.583-.806-.583-.495 0-.857.211-.914.567h-.852a1.58 1.58 0 01.614-1.022c.33-.247.744-.353 1.152-.297 1.065 0 1.675.484 1.675 1.245a.928.928 0 01-.708.921v.07a1.005 1.005 0 01.877 1.014c0 .856-.725 1.422-1.833 1.422-.978 0-1.774-.45-1.855-1.36zm4.961 1.278v-4.503h.877v3.097h.07l2.066-3.097h.876v4.503h-.876v-3.114h-.067l-2.069 3.114h-.877zm8.72-3.755h-1.412v3.755h-.885v-3.755h-1.412v-.748h3.709v.748zm4.765 2.539a1.83 1.83 0 01-.736 1.006 1.814 1.814 0 01-1.207.297 2.025 2.025 0 01-1.571-.68 2.048 2.048 0 01-.5-1.645 2.086 2.086 0 01.5-1.65 2.068 2.068 0 011.567-.702c1.247 0 2 .856 2 2.27v.31h-3.165v.05a1.195 1.195 0 00.713 1.194c.152.065.316.098.481.096a1.07 1.07 0 001.065-.546h.853zm-3.112-1.451h2.263a1.09 1.09 0 00-.662-1.084 1.079 1.079 0 00-.44-.083 1.142 1.142 0 00-1.077.718 1.155 1.155 0 00-.084.449zM82 10.195h2.02c.877 0 1.392.446 1.392 1.145a.97.97 0 01-.758.951v.07a1.024 1.024 0 01.959 1.038c0 .786-.588 1.299-1.572 1.299H82v-4.503zm.876.682v1.166h.877c.535 0 .79-.207.79-.587 0-.351-.222-.58-.692-.58l-.975.001zm0 1.82v1.319h1.05c.522 0 .802-.232.802-.658 0-.45-.316-.662-.913-.662h-.939zM24.655 20.3c.01-.834.231-1.652.641-2.378A4.939 4.939 0 0127 16.149a5.05 5.05 0 00-1.732-1.551 5.023 5.023 0 00-2.24-.607c-1.672-.176-3.292 1.005-4.144 1.005-.868 0-2.18-.988-3.592-.958a5.273 5.273 0 00-2.584.774 5.304 5.304 0 00-1.868 1.954c-1.925 3.348-.49 8.269 1.355 10.976.922 1.325 2 2.805 3.412 2.753 1.38-.058 1.896-.885 3.563-.885 1.65 0 2.134.885 3.574.852 1.481-.025 2.415-1.332 3.305-2.67a10.984 10.984 0 001.512-3.092 4.766 4.766 0 01-2.113-1.76 4.798 4.798 0 01-.793-2.64zm-2.719-8.09a4.888 4.888 0 001.11-3.49 4.927 4.927 0 00-3.194 1.66 4.64 4.64 0 00-1.138 3.361 4.064 4.064 0 003.222-1.53zm20.171 14.93h-4.711l-1.132 3.356H34.27l4.462-12.418h2.074l4.462 12.418h-2.03l-1.13-3.356zm-4.223-1.549h3.734l-1.84-5.447h-.052l-1.842 5.447zm17.021.379c0 2.813-1.499 4.62-3.76 4.62a3.044 3.044 0 01-2.836-1.583h-.043v4.484h-1.85V21.442h1.79v1.506h.035c.29-.502.71-.916 1.215-1.198a3.185 3.185 0 011.654-.402c2.288 0 3.795 1.816 3.795 4.622zm-1.901 0c0-1.833-.943-3.038-2.382-3.038-1.413 0-2.364 1.23-2.364 3.038 0 1.824.951 3.046 2.364 3.046 1.439 0 2.382-1.197 2.382-3.046zm11.82 0c0 2.813-1.499 4.62-3.76 4.62a3.043 3.043 0 01-1.645-.382 3.06 3.06 0 01-1.191-1.201h-.043v4.484h-1.85V21.442h1.79v1.506h.035a3.185 3.185 0 012.87-1.6c2.286 0 3.794 1.816 3.794 4.622zm-1.901 0c0-1.833-.943-3.038-2.382-3.038-1.413 0-2.364 1.23-2.364 3.038 0 1.824.95 3.046 2.364 3.046 1.439 0 2.382-1.197 2.382-3.046zm8.457 1.066c.136 1.232 1.327 2.04 2.955 2.04 1.559 0 2.68-.808 2.68-1.919 0-.964-.676-1.54-2.278-1.936l-1.602-.388c-2.27-.55-3.323-1.617-3.323-3.348 0-2.142 1.858-3.614 4.497-3.614 2.612 0 4.403 1.472 4.463 3.614h-1.867c-.112-1.239-1.132-1.987-2.622-1.987s-2.51.757-2.51 1.858c0 .878.651 1.395 2.245 1.79l1.361.336c2.536.603 3.59 1.626 3.59 3.443 0 2.323-1.842 3.778-4.772 3.778-2.74 0-4.591-1.42-4.711-3.667h1.893zM82.961 19.3v2.142h1.714v1.472h-1.714v4.991c0 .776.344 1.137 1.097 1.137.203-.004.406-.018.608-.043v1.463a5.05 5.05 0 01-1.027.086c-1.825 0-2.536-.689-2.536-2.444v-5.19h-1.31v-1.472h1.31V19.3h1.858zm2.707 6.67c0-2.849 1.67-4.639 4.274-4.639 2.613 0 4.275 1.79 4.275 4.639 0 2.856-1.654 4.638-4.275 4.638-2.621 0-4.274-1.782-4.274-4.638zm6.664 0c0-1.954-.891-3.108-2.39-3.108-1.5 0-2.39 1.162-2.39 3.108 0 1.962.89 3.106 2.39 3.106 1.499 0 2.39-1.144 2.39-3.106zm3.41-4.528h1.764v1.541h.043c.12-.48.4-.906.795-1.204.395-.298.88-.45 1.373-.431a2.81 2.81 0 01.633.069v1.738a2.569 2.569 0 00-.83-.112 1.855 1.855 0 00-1.441.596 1.876 1.876 0 00-.487 1.487v5.37h-1.85v-9.054zm13.137 6.395c-.248 1.643-1.842 2.771-3.88 2.771-2.622 0-4.249-1.764-4.249-4.595 0-2.84 1.636-4.682 4.171-4.682 2.494 0 4.061 1.72 4.061 4.466v.637h-6.365v.112a2.357 2.357 0 001.452 2.392c.309.126.64.185.973.172a2.031 2.031 0 002.081-1.273h1.756zm-6.253-2.702h4.506a2.17 2.17 0 00-2.211-2.298 2.268 2.268 0 00-1.624.668 2.3 2.3 0 00-.671 1.63z" fill="#fff"/></symbol><symbol id="icon-arrow"><path d="M1 1l8 9.333L1 19"/></symbol><symbol id="icon-fb" viewBox="0 0 40 40"><path fill="#4064AD" d="M0 0h40v40H0z"/><path d="M13.415 20.848h2.821V32.58c0 .231.186.419.415.419h4.783c.23 0 .415-.188.415-.42V20.904h3.243c.211 0 .389-.16.413-.372l.492-4.32a.422.422 0 00-.102-.326.413.413 0 00-.31-.14h-3.736v-2.708c0-.816.436-1.23 1.294-1.23h2.442c.23 0 .415-.188.415-.42V7.422a.417.417 0 00-.415-.419h-3.366A3.274 3.274 0 0022.065 7c-.584 0-2.614.116-4.218 1.606-1.777 1.652-1.53 3.63-1.47 3.972v3.167h-2.962a.417.417 0 00-.415.419v4.264c0 .232.186.42.415.42z" fill="#fff"/></symbol><symbol id="icon-find" viewBox="0 0 24 24"><path d="M17.37 16.633l5.967 5.967c.366.366.498.828.295 1.032-.204.203-.665.071-1.031-.295l-5.968-5.967.737-.737z"/><path d="M20.337 10.419c0 5.478-4.44 9.918-9.918 9.918C4.94 20.337.5 15.897.5 10.42.5 4.94 4.94.5 10.419.5c5.478 0 9.918 4.44 9.918 9.919z"/></symbol><symbol id="icon-googleplay" viewBox="0 0 130 40"><rect width="130" height="40" rx="8" fill="#000"/><rect x=".5" y=".5" width="129" height="39" rx="7.5" stroke="#A6A6A6"/><path d="M10.362 7.54a2.01 2.01 0 00-.466 1.4v22.12a1.95 1.95 0 00.466 1.4l.07.08L22.73 20.15v-.3L10.432 7.47l-.07.07z" fill="url(#a)"/><path d="M26.8 24.28l-4.07-4.13v-.3l4.07-4.13.09.06 4.873 2.78c1.39.79 1.39 2.09 0 2.89l-4.854 2.78-.109.05z" fill="url(#b)"/><path d="M26.92 24.22L22.73 20 10.363 32.46a1.602 1.602 0 002.055.07l14.502-8.31z" fill="url(#c)"/><path d="M26.92 15.78l-14.502-8.3a1.59 1.59 0 00-2.055.06L22.731 20l4.189-4.22z" fill="url(#d)"/><path opacity=".2" d="M26.8 24.13l-14.382 8.25a1.64 1.64 0 01-1.985 0l-.07.07.07.08a1.64 1.64 0 001.985 0l14.502-8.31-.12-.09z" fill="#000"/><path opacity=".12" d="M10.362 32.32a2.01 2.01 0 01-.436-1.41v.15a1.95 1.95 0 00.466 1.4l.07-.07-.1-.07zM31.763 21.3L26.8 24.13l.09.09 4.873-2.78A1.74 1.74 0 0032.815 20a1.866 1.866 0 01-1.052 1.3z" fill="#000"/><path opacity=".25" d="M12.417 7.62L31.762 18.7a1.848 1.848 0 011.053 1.3 1.758 1.758 0 00-.33-.866 1.74 1.74 0 00-.723-.574L12.417 7.48c-1.38-.8-2.521-.14-2.521 1.46v.15c.03-1.6 1.141-2.26 2.52-1.47z" fill="#fff"/><path d="M65.745 21.658a3.912 3.912 0 00-2.184.673 3.956 3.956 0 00-1.444 1.782 3.99 3.99 0 00.862 4.316 3.906 3.906 0 004.288.849 3.94 3.94 0 001.762-1.464c.431-.652.66-1.419.658-2.203a3.922 3.922 0 00-1.139-2.819 3.867 3.867 0 00-2.803-1.134zm0 6.353a2.368 2.368 0 01-1.366-.32 2.394 2.394 0 01-.95-1.04 2.416 2.416 0 01.405-2.668 2.366 2.366 0 012.613-.6c.445.175.828.482 1.098.88.27.397.414.867.416 1.348a2.303 2.303 0 01-.606 1.671 2.271 2.271 0 01-1.61.73zm-8.605-6.353a3.912 3.912 0 00-2.184.673 3.956 3.956 0 00-1.444 1.782 3.989 3.989 0 00.862 4.316 3.906 3.906 0 004.288.849 3.94 3.94 0 001.762-1.464c.431-.652.66-1.419.658-2.203a3.924 3.924 0 00-1.139-2.819 3.868 3.868 0 00-2.803-1.134zm0 6.353a2.368 2.368 0 01-1.366-.32 2.393 2.393 0 01-.95-1.04 2.415 2.415 0 01.405-2.668 2.366 2.366 0 012.613-.6c.445.175.828.482 1.098.88.27.397.414.867.416 1.348a2.303 2.303 0 01-.606 1.671 2.27 2.27 0 01-1.61.73zm-10.23-5.134v1.674h3.988a3.519 3.519 0 01-.923 2.111 4.08 4.08 0 01-3.084 1.228 4.415 4.415 0 01-3.134-1.308 4.482 4.482 0 01-1.298-3.157c0-1.184.467-2.32 1.298-3.157a4.415 4.415 0 013.134-1.308 4.267 4.267 0 013.029 1.2l1.172-1.18a5.78 5.78 0 00-4.183-1.693 6.063 6.063 0 00-4.467 1.712 6.15 6.15 0 00-1.385 2.023 6.189 6.189 0 001.385 6.84 6.063 6.063 0 004.468 1.712 5.567 5.567 0 002.31-.402 5.602 5.602 0 001.946-1.319 5.606 5.606 0 001.44-3.935 5.875 5.875 0 00-.083-1.041H46.91zm41.834 1.302a3.719 3.719 0 00-1.291-1.787 3.675 3.675 0 00-2.07-.734 3.67 3.67 0 00-2.697 1.17 3.726 3.726 0 00-.996 2.783c-.008.85.257 1.678.755 2.363a3.907 3.907 0 002.01 1.437c.806.248 1.67.227 2.463-.06a3.91 3.91 0 001.937-1.535l-1.34-.93a2.212 2.212 0 01-1.93 1.088 1.977 1.977 0 01-1.134-.303 1.997 1.997 0 01-.767-.897l5.254-2.186-.194-.41zm-5.355 1.32a2.191 2.191 0 01.546-1.593 2.162 2.162 0 011.513-.723 1.505 1.505 0 011.45.847l-3.51 1.47zm-4.266 3.833h1.727V17.705h-1.727v11.627zm-2.825-6.79h-.065a2.716 2.716 0 00-2.068-.93 3.92 3.92 0 00-2.657 1.224 3.979 3.979 0 00-1.086 2.733c0 1.018.39 1.997 1.086 2.734a3.92 3.92 0 002.657 1.224 2.642 2.642 0 002.068-.93h.065v.567c0 1.517-.803 2.326-2.096 2.326a2.169 2.169 0 01-1.204-.398c-.354-.25-.626-.6-.781-1.007l-1.496.624c.277.7.758 1.298 1.38 1.717a3.674 3.674 0 002.101.627c2.022 0 3.693-1.2 3.693-4.121v-7.041h-1.597v.65zm-1.985 5.47a2.375 2.375 0 01-1.588-.753 2.41 2.41 0 010-3.286 2.375 2.375 0 011.588-.752 2.192 2.192 0 011.555.745 2.226 2.226 0 01.55 1.645 2.23 2.23 0 01-.543 1.654 2.2 2.2 0 01-1.562.746zm22.519-10.307h-4.136v11.627h1.726v-4.41h2.41a3.568 3.568 0 002.704-.96 3.64 3.64 0 000-5.297 3.588 3.588 0 00-2.704-.96zm0 5.58h-2.41v-3.962h2.447a1.962 1.962 0 011.397.583 1.99 1.99 0 01.579 1.408 2.004 2.004 0 01-.58 1.407 1.977 1.977 0 01-1.396.583l-.037-.018zm10.655-1.664a3.203 3.203 0 00-1.802.424 3.238 3.238 0 00-1.273 1.352l1.523.642a1.647 1.647 0 011.579-.846 1.654 1.654 0 011.655.866c.105.195.17.41.192.631v.112a3.836 3.836 0 00-1.801-.447c-1.643 0-3.323.93-3.323 2.624a2.705 2.705 0 00.898 1.891 2.654 2.654 0 001.973.667 2.43 2.43 0 001.251-.268c.386-.2.713-.499.946-.867h.056v.93h1.662v-4.474c0-2.037-1.533-3.219-3.499-3.219l-.037-.018zm-.213 6.372c-.563 0-1.348-.289-1.348-.986 0-.93.979-1.247 1.847-1.247a3.045 3.045 0 011.569.39 2.105 2.105 0 01-.669 1.315 2.076 2.076 0 01-1.362.546l-.037-.018zm9.806-6.102l-1.976 5.041h-.056l-2.049-5.041h-1.847l3.075 7.05-1.755 3.916h1.801L119 21.891h-1.92zm-15.512 7.441h1.718V17.705h-1.718v11.627z" fill="#fff"/><path d="M41.712 14.7h-.674v-1.86h.573a2.647 2.647 0 00.674-2.111V7.938h3.693v4.893h.618v1.86h-.683V13.52h-4.2v1.18zm1.283-3.971a3.743 3.743 0 01-.526 2.13h2.77V8.626h-2.244v2.103zm9.151 2.065a2.86 2.86 0 01-2.027.847 2.844 2.844 0 01-2.026-.847 2.998 2.998 0 010-4.13 2.86 2.86 0 012.026-.848 2.844 2.844 0 012.645 1.796c.14.355.21.735.204 1.117a2.809 2.809 0 01-.822 2.065zm-3.536-.466a2.05 2.05 0 001.505.633 2.01 2.01 0 001.505-.633 2.373 2.373 0 000-3.2 2.023 2.023 0 00-1.505-.632 2.037 2.037 0 00-1.505.633 2.4 2.4 0 000 3.2zm7.94 1.312a2.751 2.751 0 01-2.013-.828 3.026 3.026 0 010-4.167 2.768 2.768 0 012.05-.828 2.523 2.523 0 012.031.93l-.49.484a1.849 1.849 0 00-1.541-.716 2.064 2.064 0 00-1.533.623 2.4 2.4 0 000 3.218 2.078 2.078 0 002.446.393c.283-.143.533-.347.73-.597l.499.493a2.774 2.774 0 01-.923.725 2.836 2.836 0 01-1.256.27zm5.077-.12h-.71V8.625h-1.552v-.688h3.804v.688h-1.541v4.893zm6.435-5.582l-2.095 4.707a1.353 1.353 0 01-.723.867 1.33 1.33 0 01-1.124.007l.185-.66c.113.064.24.099.369.102a.66.66 0 00.388-.102.846.846 0 00.249-.354l.203-.446-1.846-4.121h.84l1.366 3.2 1.348-3.2h.84zm.803 5.582V7.937h4.007v5.581h-.71V8.626h-2.586v4.893h-.71zm5.273 0V7.937h.71v2.39h2.77v-2.39h.72v5.581h-.72V11h-2.77v2.52h-.71zm9.999-.726a2.869 2.869 0 01-2.031.848 2.853 2.853 0 01-2.031-.848 2.998 2.998 0 010-4.13 2.86 2.86 0 012.026-.848 2.844 2.844 0 012.027.848 3.017 3.017 0 010 4.13h.01zm-3.536-.466a2.023 2.023 0 001.505.633 2.036 2.036 0 001.505-.633 2.4 2.4 0 000-3.2 2.05 2.05 0 00-1.505-.632 2.01 2.01 0 00-1.505.633 2.373 2.373 0 000 3.2zm7.257 1.192V7.937h2.003a1.66 1.66 0 011.127.428 1.405 1.405 0 01.48 1.088 1.29 1.29 0 01-.203.707c-.137.2-.325.358-.545.456.267.092.5.26.674.484.17.228.26.505.258.79a1.47 1.47 0 01-.498 1.135c-.32.3-.744.464-1.182.456l-2.114.037zm.71-3.191h1.293a.798.798 0 00.646-.27.84.84 0 00.25-.586.869.869 0 00-.213-.605.785.785 0 00-.618-.26h-1.33l-.027 1.72zm0 2.502h1.441a.844.844 0 00.665-.288.934.934 0 00.249-.633.934.934 0 00-.951-.912h-1.403v1.833z" fill="#fff" stroke="#fff" stroke-width=".2" stroke-miterlimit="10"/></symbol><symbol id="icon-inst" viewBox="0 0 40 40"><path fill="url(#a)" d="M0 0h40v40H0z"/><path d="M25.825 7h-11.65C10.219 7 7 10.219 7 14.175v11.65C7 29.78 10.219 33 14.175 33h11.65C29.78 33 33 29.781 33 25.825v-11.65C33 10.22 29.781 7 25.825 7zm4.868 18.825a4.874 4.874 0 01-4.868 4.868h-11.65a4.874 4.874 0 01-4.868-4.868v-11.65a4.874 4.874 0 014.868-4.868h11.65a4.874 4.874 0 014.868 4.868v11.65z" fill="#fff"/><path d="M20 13.3a6.707 6.707 0 00-6.7 6.7c0 3.695 3.006 6.7 6.7 6.7 3.694 0 6.7-3.005 6.7-6.7 0-3.694-3.006-6.7-6.7-6.7zm0 11.093A4.398 4.398 0 0115.607 20 4.398 4.398 0 0120 15.608 4.398 4.398 0 0124.393 20 4.398 4.398 0 0120 24.393zm6.981-13.048c-.444 0-.88.18-1.195.495a1.7 1.7 0 00-.497 1.196c0 .445.182.882.497 1.197.314.314.75.495 1.195.495a1.71 1.71 0 001.197-.495c.315-.315.495-.752.495-1.197a1.7 1.7 0 00-.495-1.196 1.7 1.7 0 00-1.197-.495z" fill="#fff"/></symbol><symbol id="icon-location" viewBox="0 0 23 23"><path clip-rule="evenodd" d="M20.278 3.278l-6 18-3.102-9.09-8.898-2.91 18-6z"/></symbol><symbol id="icon-ok" viewBox="0 0 40 40"><path fill="#FF9800" d="M0 0h40v40H0z"/><path d="M12.114 20.954c-.664 1.306.09 1.93 1.81 2.996 1.463.903 3.483 1.234 4.781 1.366l-5.114 4.92c-1.489 1.426.908 3.715 2.395 2.319l4.027-3.884c1.541 1.483 3.02 2.904 4.027 3.89 1.488 1.401 3.883-.869 2.411-2.32l-5.13-4.92c1.314-.132 3.304-.482 4.749-1.366h-.001c1.72-1.072 2.474-1.695 1.82-3-.396-.741-1.462-1.361-2.88-.29 0 0-1.917 1.468-5.008 1.468-3.092 0-5.007-1.468-5.007-1.468-1.418-1.077-2.489-.451-2.88.29z" fill="#fff"/><path d="M19.998 20.154c3.768 0 6.845-2.945 6.845-6.57 0-3.64-3.077-6.584-6.845-6.584-3.769 0-6.845 2.944-6.845 6.585 0 3.624 3.076 6.569 6.845 6.569zm0-9.818c1.852 0 3.362 1.452 3.362 3.248 0 1.782-1.51 3.234-3.362 3.234-1.851 0-3.361-1.453-3.361-3.234-.001-1.797 1.509-3.248 3.361-3.248z" fill="#fff"/></symbol><symbol id="icon-vk" viewBox="0 0 40 40"><path fill="#4A76A8" d="M0 0h40v40H0z"/><path d="M29.377 21.884c.862.794 1.772 1.54 2.546 2.414.342.388.665.789.913 1.24.35.64.033 1.344-.577 1.383l-3.787-.002c-.977.076-1.757-.294-2.412-.924-.524-.503-1.01-1.039-1.514-1.56a3.53 3.53 0 00-.682-.57c-.517-.317-.966-.22-1.261.288-.301.517-.37 1.09-.4 1.666-.04.84-.31 1.061-1.205 1.1-1.915.085-3.732-.188-5.42-1.098-1.489-.803-2.643-1.936-3.647-3.218-1.956-2.498-3.454-5.242-4.8-8.063-.303-.636-.081-.977.663-.99 1.236-.022 2.471-.02 3.708 0 .503.006.835.278 1.029.725.668 1.55 1.486 3.023 2.513 4.39.274.363.553.727.95.983.439.283.773.19.98-.272a2.9 2.9 0 00.218-.92c.098-1.078.11-2.154-.06-3.227-.106-.67-.507-1.104-1.216-1.23-.362-.065-.308-.192-.133-.387.304-.336.59-.545 1.162-.545h4.28c.674.125.824.41.916 1.05l.004 4.48c-.008.248.131.982.604 1.146.378.117.628-.168.855-.395 1.025-1.025 1.756-2.236 2.41-3.491.29-.552.54-1.124.78-1.697.18-.425.46-.634.968-.624l4.12.003c.123 0 .246.002.364.02.695.112.885.394.67 1.033-.337 1.002-.995 1.837-1.637 2.677-.688.896-1.422 1.76-2.104 2.662-.626.823-.576 1.238.202 1.953z" fill="#fff"/></symbol></svg>