<svg xmlns="http://www.w3.org/2000/svg" xmlns:xlink="http://www.w3.org/1999/xlink"><symbol id="icon-arrow"><path d="M1 1l8 9.333L1 19"/></symbol><symbol id="icon-find" viewBox="0 0 24 24"><path d="M17.37 16.633l5.967 5.967c.366.366.498.828.295 1.032-.204.203-.665.071-1.031-.295l-5.968-5.967.737-.737z"/><path d="M20.337 10.419c0 5.478-4.44 9.918-9.918 9.918C4.94 20.337.5 15.897.5 10.42.5 4.94 4.94.5 10.419.5c5.478 0 9.918 4.44 9.918 9.919z"/></symbol><symbol id="icon-location" viewBox="0 0 23 23"><path clip-rule="evenodd" d="M20.278 3.278l-6 18-3.102-9.09-8.898-2.91 18-6z"/></symbol></svg>